<svg xmlns="http://www.w3.org/2000/svg" width="150.667" height="174.667" viewBox="0 0 39.863978 46.21398"><path d="M1.196 39.821h36.551V1.323H1.197Zm0 0" style="fill:#f8b845;fill-opacity:1;fill-rule:nonzero;stroke:none;stroke-width:.352778"/><path d="M17.828 4.902c-3.866 4.939-8.936 5.27-9.641 5.283v4.5s.44.008 3.6.017c2.072.006 2.044 2.065 2.044 2.065v20.59h24.342V4.902" style="fill:#9ca1ab;fill-opacity:1;fill-rule:nonzero;stroke:none;stroke-width:.352778"/><path d="M38.879 13.016V7.018H21.592v17.64h8.114v-1.766c0-.983.745-1.778 1.588-1.778.843 0 1.587.795 1.587 1.778v11.02c0 .981-.744 1.778-1.587 1.778s-1.588-.797-1.588-1.778v-5.727h-8.114v1.685c0 7.563.286 8.982 7.243 8.966 0 0 9.342.891 9.342-5.47l.137-9.544c.096-6.619-.239-8.105-3.662-8.105-2.62 0-3.887 1.012-4.946 2.199v-4.9" style="fill:#fff;fill-opacity:1;fill-rule:nonzero;stroke:none;stroke-width:.352778"/><path d="M37.389 34.739a2.125 2.125 0 0 1-2.117 2.132H4.59a2.125 2.125 0 0 1-2.116-2.132V4.521c0-1.178.948-2.133 2.116-2.133h30.682c1.169 0 2.117.955 2.117 2.133zM37.042 0H2.822C1.458 0 0 1.47 0 2.844v40.527c0 1.374 1.458 2.843 2.822 2.843h34.22c1.364 0 2.822-1.47 2.822-2.843V2.844C39.864 1.47 38.406 0 37.042 0" style="fill:#211e1e;fill-opacity:1;fill-rule:nonzero;stroke:none;stroke-width:.352778"/><path d="M5.837 39.205v4.356h-.87v-2.71c0-.133-.006-.232-.021-.3a.237.237 0 0 0-.088-.15.54.54 0 0 0-.232-.09 2.954 2.954 0 0 0-.453-.024h-.13v-.391c.31-.05.57-.131.783-.246a2.1 2.1 0 0 0 .573-.445M9.708 39.2v.536H7.651v1.186c.201-.24.524-.36.967-.36.9 0 1.35.386 1.35 1.157v.494c0 .469-.11.825-.333 1.07-.222.245-.612.366-1.171.364-1.068-.011-1.603-.401-1.603-1.173v-.18h.845v.216c0 .166.056.304.167.412.111.109.295.164.555.164.25 0 .429-.062.536-.185.106-.124.16-.325.16-.602v-.55c0-.23-.06-.398-.182-.504-.121-.105-.306-.156-.551-.156a.777.777 0 0 0-.481.153c-.136.105-.204.21-.204.317h-.82v-2.36M16.17 43.831h-.9v-4.816h.9zm-1.35-4.816v4.816h-.9v-2.453h-.654v-.566h.655v-1.797zm-2.175.04v1.612c0 .564.113 1.085.337 1.563.202.423.446.722.728.896l-.566.355a2.422 2.422 0 0 1-.574-.596 2.754 2.754 0 0 1-.394-.847 2.606 2.606 0 0 1-.986 1.443l-.524-.355c.263-.188.495-.485.696-.896.247-.49.37-1.012.37-1.563v-1.612M22.629 43.831h-.913v-4.816h.913zm-3.9-3.82c-.12.304-.18.696-.18 1.177 0 .521.06.939.18 1.256.13.341.32.51.566.51.243 0 .429-.169.561-.51.124-.317.185-.735.185-1.256 0-.48-.06-.873-.185-1.177-.135-.33-.322-.494-.56-.494-.243 0-.432.164-.567.494m1.818-.36c.278.403.418.918.418 1.541 0 .662-.14 1.2-.418 1.613-.297.45-.712.676-1.245.676-.539 0-.958-.226-1.258-.676-.274-.414-.412-.951-.412-1.613 0-.623.138-1.138.412-1.542a1.45 1.45 0 0 1 1.258-.66c.53 0 .944.22 1.245.66M27.507 41.247v-.31c-.107.013-.225.025-.351.036a8.13 8.13 0 0 1-.783 0c-.132-.01-.25-.023-.358-.036v.31zm-1.794 1.504c-.23.072-.345.162-.345.269 0 .107.115.197.345.271.259.083.61.125 1.054.125.431 0 .774-.042 1.03-.125.234-.074.35-.164.35-.271 0-.107-.116-.197-.35-.27-.256-.08-.599-.12-1.03-.12-.444 0-.795.04-1.054.12m-.03-3.075c-.239.081-.359.183-.359.312 0 .122.12.224.359.304.259.088.615.131 1.072.131.456 0 .815-.043 1.079-.13.237-.08.357-.183.357-.305 0-.129-.12-.23-.357-.312-.264-.083-.623-.124-1.08-.124-.456 0-.812.041-1.071.124m2.804 2.694c.386.178.579.396.579.656 0 .254-.193.469-.58.646-.426.197-1.001.295-1.724.295-.728 0-1.305-.098-1.734-.295-.382-.177-.572-.392-.572-.646 0-.26.19-.478.572-.656.429-.197 1.006-.295 1.734-.295.723 0 1.298.098 1.725.295m-3.928-1.977a.589.589 0 0 1-.177-.405c0-.277.197-.509.59-.696.436-.202 1.034-.3 1.795-.3.755 0 1.355.098 1.794.3.398.187.597.419.597.696 0 .141-.06.278-.185.405-.13.13-.317.244-.554.34v.515h1.017v.546h-5.338v-.546h1.004v-.515a1.545 1.545 0 0 1-.543-.34M35.65 39.015v1.953h.621v.55h-.621v2.313h-.912v-4.816zm-2.047.1v1.493c0 .712-.23 1.313-.69 1.797-.427.444-1.062.802-1.904 1.076l-.364-.41c.616-.214 1.095-.487 1.436-.816.412-.398.617-.877.617-1.438V39.66h-1.906v-.544" style="fill:#fff;fill-opacity:1;fill-rule:nonzero;stroke:none;stroke-width:.352778"/></svg>