<svg xmlns="http://www.w3.org/2000/svg" xml:space="preserve" x="0px" y="0px" viewBox="0 0 99 116.001"><path fill="#FFF" d="M1.47 3.719h94.845v94.299H1.47z"/><path fill="#231F20" d="M92 0H7a7 7 0 0 0-7 7v102a7 7 0 0 0 7 7h85a7 7 0 0 0 7-7V7a7 7 0 0 0-7-7zm1 86.717a6 6 0 0 1-6 6H12a6 6 0 0 1-6-6v-75a6 6 0 0 1 6-6h75a6 6 0 0 1 6 6v75z"/><path fill="#FFF" d="M26.427 96.536v1.816h2.894v-1.816h2.046v3.149h1.962v-3.266h2.06v8h-2.06v-3.106h-1.962v2.534h-5.232a2.002 2.002 0 0 1-1.336-.366 1.554 1.554 0 0 1-.418-1.2v-5.745h2.046zm8.975 8.613v5.215h-8.641a1.719 1.719 0 0 1-1.28-.439 1.58 1.58 0 0 1-.418-1.158v-3.618h10.339zm-8.975-5.244v2.388h2.894v-2.388h-2.894zm.7 6.841v2.006h6.22v-2.006h-6.22zM67.145 107.932h4.2V96.419h2.031v14.091h-2.028v-1.01h-9.616v-1.568h3.382v-3.691h2.031v3.691zm2.812-11.22v1.538h-2.784a6.417 6.417 0 0 0 1.085 3.882 5.895 5.895 0 0 0 2.38 1.772l-1 1.172a9.105 9.105 0 0 1-2.2-1.363 6.276 6.276 0 0 1-1.281-1.406c-.351.52-.772.988-1.252 1.392a8.79 8.79 0 0 1-2.06 1.362l-.932-1.157a5.463 5.463 0 0 0 2.185-1.772 6.735 6.735 0 0 0 1.016-3.882h-2.575v-1.538h7.418z"/><path fill="#211821" d="M65.979 14.11c-11.185 0-20.25 4.253-20.25 9.5v8.5c1.537 4.532 10.156 8 20.25 8a41.99 41.99 0 0 0 6.662-.529c-.042.652.06 1.306.3 1.914-1.856.925-2.9 2.746-2.9 5.376.003.348.026.695.071 1.04a6.679 6.679 0 0 0-1.238-.123c-3.481 0-6.576 2.219-7.012 5.353a22.364 22.364 0 0 1-3.451 1.564c-4.193-3.469-12.129-5.811-21.237-5.811-13.48 0-24.4 5.125-24.4 11.448v10.245c1.853 5.46 12.239 9.64 24.4 9.64s22.551-4.18 24.4-9.64v-5.836c3.109-.191 3.847-1.178 5.484-2.713.349.068 1.941-.25 2.312-.25a6.392 6.392 0 0 0 6.666-6.666c0-.127-.013-.252-.02-.378.228.029.458.044.688.044a6.392 6.392 0 0 0 6.666-6.667 7.314 7.314 0 0 0-1.23-4.029 4.714 4.714 0 0 1 1.23-1.971c.785-.471 1.126-3.756.184-6.645a7.477 7.477 0 0 0 2.67-3.366v-8.5c.005-5.247-9.061-9.5-20.245-9.5zm-28.8 56.725c-12.438 0-22.521-5.672-22.521-10.232 0-5.651 10.083-10.232 22.521-10.232S59.7 54.952 59.7 60.6c0 4.563-10.086 10.235-22.525 10.235h.004zm25.279-11.229a1.976 1.976 0 0 1-.958-.148 5.581 5.581 0 0 0-.159-.7c.158-.276.574-.306 1.117-.306a.992.992 0 0 1 1.084 1c0 .556-.394.154-1.084.154zm16.333-19.152a1.025 1.025 0 1 1 1.25-1 1.145 1.145 0 0 1-1.25 1zm-12.812-8.138c-10.321 0-18.687-4.706-18.687-8.49 0-4.689 8.366-8.49 18.687-8.49s18.688 3.8 18.688 8.49c0 3.784-8.367 8.49-18.688 8.49z"/></svg>