<svg xmlns="http://www.w3.org/2000/svg" xml:space="preserve" x="0px" y="0px" viewBox="0 0 99 116"><path fill="#FFF" d="M1.4 4.7h94.8V99H1.4z"/><path fill="#231F20" d="M92 0H7C3.1 0 0 3.1 0 7v102c0 3.9 3.1 7 7 7h85c3.9 0 7-3.1 7-7V7c0-3.9-3.1-7-7-7zm1 86.7c0 3.3-2.7 6-6 6H12c-3.3 0-6-2.7-6-6v-75c0-3.3 2.7-6 6-6h75c3.3 0 6 2.7 6 6v75z"/><path fill="#FFF" d="M25.8 101.3c.6.9 1.4 1.7 2.4 2.1l-1 1.2c-.8-.4-1.5-1-2.2-1.6-.6-.5-1-1.1-1.4-1.8-.4.7-.9 1.3-1.4 1.8-.6.6-1.4 1.1-2.1 1.5l-.8-1.2c.9-.5 1.7-1.2 2.3-2.1.8-1.4 1.2-3.1 1.1-4.7h2.1c-.1 1.7.2 3.3 1 4.8zm-2.9 7.5h8.4v1.6h-8.6c-.5 0-1-.1-1.4-.4-.3-.3-.4-.8-.4-1.2v-3H23l-.1 3zm8.3-2h-2.1v-6.2h-1.8V99h1.8v-2.5h2.1v10.3zM51.1 96.7v1.6h-2.6c0 1.1.4 2.2 1 3.1.6.8 1.4 1.4 2.3 1.8l-.9 1.2c-.7-.3-1.3-.7-1.9-1.2-.6-.4-1.1-1-1.5-1.6-.4.6-.9 1.1-1.5 1.6s-1.2.9-1.9 1.2l-.8-1.2c.9-.4 1.7-1 2.2-1.8.6-.9 1-2 1-3.1H44v-1.6h7.1zm2.7 9.1c1.1.5 1.6 1.8 1.1 3-.2.5-.6.9-1.2 1.1-1.2.7-2.6 1-4.1.9-1.4.1-2.8-.3-4-.9-.8-.4-1.3-1.2-1.3-2.1s.5-1.7 1.3-2.1c1.2-.7 2.6-1 4-.9 1.6 0 3 .3 4.2 1zm-6.5 1.1c-.5.3-.8.6-.8 1s.3.7.8 1c.8.3 1.6.5 2.5.5s1.7-.1 2.5-.5c.5-.3.8-.6.8-1s-.3-.7-.8-1c-.8-.3-1.7-.5-2.5-.4-.9-.1-1.8.1-2.5.4zm7.7-2.5h-2.1v-3.3h-2.2v-1.5h2.2v-3.2H55v8zM73.3 100.8c.6.9 1.4 1.6 2.4 2l-1 1.2c-.8-.4-1.5-.9-2.2-1.5-.6-.5-1-1-1.4-1.7-.4.6-.9 1.2-1.4 1.7-.6.6-1.4 1.1-2.1 1.5l-.8-1.2c.9-.5 1.7-1.2 2.3-2 .8-1.3 1.2-2.8 1.1-4.3h2.1c-.1 1.5.2 3 1 4.3zm4.3 5c1.1.5 1.6 1.8 1.1 3-.2.5-.6.9-1.2 1.1-1.2.7-2.6 1-4.1.9-1.4.1-2.8-.3-4-.9-.8-.4-1.3-1.2-1.3-2.1s.5-1.7 1.3-2.1c1.2-.7 2.6-1 4-.9 1.5 0 2.9.3 4.2 1zm-6.6 1.1c-.5.3-.8.6-.8 1s.3.7.8 1c.8.3 1.6.5 2.5.5s1.7-.1 2.5-.5c.5-.3.8-.6.8-1s-.3-.7-.8-1c-.8-.3-1.7-.5-2.5-.4-.9-.1-1.7.1-2.5.4zm3.8-6.7v-1.6h1.8v-2.2h2.1v8.1h-2.1v-4.3h-1.8z"/><path fill="none" d="M11.7 5.5h75.7c3.3 0 6 2.7 6 6v75.3c0 3.3-2.7 6-6 6H11.7c-3.3 0-6-2.7-6-6V11.5c0-3.3 2.7-6 6-6z"/><path fill="#212121" d="M90.2 38.9c1.9 0 3.8-.3 5.5-.9v-5.7c-4.6 2.2-10.3 1.5-14.2-2.2-5.1-4.8-5.4-12.9-.5-18C84.9 8 90.9 7 95.7 9.3V3.5C89.3 1.4 82 3.1 77 8.3 70.8 14.9 70.4 25 75.9 32l-2.4 2.5-4-3.8-3.7 4 4 3.8-4.2 4.5 4 3.7 4.2-4.5 4 3.8 3.7-4-4-3.8 2.4-2.5c3 2.1 6.7 3.2 10.3 3.2zM71 3.2h-5.5c-.2 3-1.5 5.8-3.6 7.9-5 5-13 5-18 0-2.1-2.1-3.4-4.9-3.6-7.9h-5.4c.5 8.5 6.9 15.7 15.5 16.9v7.2L46.5 24l-3 3.6 8.7 8.3.5.4.2.2 9.6-8.8-3.2-3.4-3.7 3.1V20c8.5-1.2 14.8-8.3 15.4-16.8zM15.2 93.9h6c-.8-1.1-1.8-2-2.7-2.9l-.5-.7c-2.5-2.7-4.5-4.9-4.5-7.7V72.5c0-1.4 1.7-3.4 2.8-3.4 1.3 0 2.8.4 2.8 2.3v11.9h4.5V49.6c0-.7.3-1.3.8-1.8s1.2-.9 1.9-1h.1c1.7 0 2.8.9 2.8 1.1v24.6h4.5V44.6c0-1.5 1.3-2.7 2.8-2.7h.1c.7 0 1.5.2 2 .8.5.5.8 1.2.8 2v27.6h4.5V49.6c.3-1.4 1.4-2.4 2.8-2.6 1.4.2 2.5 1.2 2.8 2.6v23.3H54V57.5c.1-1.5 1.3-2.6 2.8-2.6 1.4-.2 2.6.8 2.8 2.2v36.8h4.5V57.7c.1-3.9-3-7.1-6.8-7.2-.1-.1-.2-.1-.4-.1-1 0-1.9.2-2.8.6v-1.4c-.3-3.9-3.4-6.9-7.3-7.1-1 0-2 .3-3 .7-.3-1.4-1-2.7-2-3.7-2.9-2.8-7.6-2.8-10.5.2-.9.9-1.5 2-1.8 3.2-1-.3-2-.5-3.1-.5-2 .1-3.8.9-5.2 2.3-1.3 1.3-2.1 3.1-2.1 4.9V65c-.9-.3-1.9-.5-2.8-.5-3.9 0-7.3 4.3-7.3 7.9v10.1c0 4.9 3.3 8.3 5.7 10.9l.5.5z"/></svg>