<svg xmlns="http://www.w3.org/2000/svg" viewBox="0 0 99 116.001"><path d="M1.47 3.719h94.845v94.299H1.47z" style="fill:#fff"/><path d="M92 0H7a7 7 0 0 0-7 7v102a7 7 0 0 0 7 7h85a7 7 0 0 0 7-7V7a7 7 0 0 0-7-7Zm1 86.717a6 6 0 0 1-6 6H12a6 6 0 0 1-6-6v-75a6 6 0 0 1 6-6h75a6 6 0 0 1 6 6Z" style="fill:#231f20"/><path d="M77.915 53.356a4.188 4.188 0 1 0-4.187-4.188 4.188 4.188 0 0 0 4.187 4.188Z" style="fill:#231f20;fill-rule:evenodd"/><path d="M88.718 54.133a2 2 0 0 0-2.816-.267l-5.8 4.789-5.964-5.963a2 2 0 0 0-1.414-.586h-7.871a2 2 0 0 0-1.382.555L55.487 60.3a2 2 0 1 0 2.765 2.89l7.4-7.082h1.958l-6.355 8.725-5 6.4H45.353a2.5 2.5 0 0 0 0 5h12.125a2.5 2.5 0 0 0 1.97-.961l4.714-6.035L70 73.772l-2.231 12.133a2.5 2.5 0 0 0 2.008 2.91 2.6 2.6 0 0 0 .454.041 2.5 2.5 0 0 0 2.456-2.049l2.5-13.625a2.5 2.5 0 0 0-.924-2.425l-4.711-3.664L75.4 59.61l3.16 3.16a2 2 0 0 0 2.688.127l7.2-5.948a2 2 0 0 0 .27-2.816Z" style="fill:#231f20;fill-rule:evenodd"/><path d="m62.006 20.023 9.384 9.182 9.378 9.18.721-13.105.723-13.108-6.439 6.564-5.792-15.505-3.755 1.377 5.828 15.604-10.048-.189zM22.086 21.765l13.035 1.566 13.029 1.568-7.411-10.832-7.411-10.836-1.108 9.128L18.182 3.59l-4.367 2.127L30.17 15.794l-8.084 5.971zM13.463 51.296l12.372-4.395 12.367-4.39-11.455-6.406-11.457-6.41 3.067 8.668-16.473-1.61-.414 3.979 16.579 1.621-4.586 8.943zM32.877 89.469l2.828-8.584 2.83-8.58-8.318 3.53-8.321 3.529 6.01 1.988-7.826 8.283 1.99 1.903 7.876-8.336 2.931 6.267z" style="fill:#231f20"/><path d="M31.486 96.712v1.582h-1.572v2.006h1.572v1.568h-4.4v1.1h4.87v1.582H19.908v-1.582h5.135v-1.1H20.4V100.3H22v-2.006h-1.6v-1.582Zm-.209 8.95v4.838h-2.059v-3.223H20.59v-1.611Zm-7.222-7.368v2.006h3.8v-2.006ZM50.648 96.682v4.409h-4.62v1.582h7.042v-.732h-2.157v-1.553h2.157V99.07h-2.157V97.5h2.157v-1.081h2.059v8.1H53.07v-.293h-7.223a2.15 2.15 0 0 1-1.405-.395 1.484 1.484 0 0 1-.473-1.187v-3.105H48.6v-1.3h-4.631v-1.557Zm4.481 8.672v5.146H53.07v-3.575h-8.5v-1.567ZM73.5 100.813a5.846 5.846 0 0 0 2.408 2.022l-.988 1.186a10.308 10.308 0 0 1-2.185-1.479 5.547 5.547 0 0 1-1.378-1.7 6.285 6.285 0 0 1-1.433 1.685 11.06 11.06 0 0 1-2.129 1.465l-.849-1.157a6.509 6.509 0 0 0 2.254-2.022 7.576 7.576 0 0 0 1.128-4.277H72.4a7.6 7.6 0 0 0 1.1 4.277Zm4.231 5.01a2.26 2.26 0 0 1-.014 4.131 7.584 7.584 0 0 1-4.064.937 7.551 7.551 0 0 1-4.049-.937 2.413 2.413 0 0 1-1.324-2.054 2.454 2.454 0 0 1 1.322-2.08 7.6 7.6 0 0 1 4.049-.938 7.615 7.615 0 0 1 4.078.941Zm-6.554 1.084q-.808.4-.808.981t.808.967a5.581 5.581 0 0 0 2.476.454 5.76 5.76 0 0 0 2.519-.454q.822-.4.821-.967t-.821-.981a5.93 5.93 0 0 0-2.519-.44 5.745 5.745 0 0 0-2.478.44Zm3.841-6.68V98.6h1.792v-2.181h2.06v8.071h-2.06v-4.263Z" style="fill:#fff"/></svg>