<svg xmlns="http://www.w3.org/2000/svg" width="150.667" height="174.667" viewBox="0 0 39.863978 46.21398"><path d="M1.196 39.823h36.551v-38.5H1.197Zm0 0" style="fill:#42a13f;fill-opacity:1;fill-rule:nonzero;stroke:none;stroke-width:.352778"/><path d="M17.622 28.538 19.08 14.74l1.46 13.797Zm13.21 8.82L26.42 4.547H11.742L7.548 37.38l9.811-.062v-2.43h3.528v2.47" style="fill:#fff;fill-opacity:1;fill-rule:nonzero;stroke:none;stroke-width:.352778"/><path d="M27.237 30.654v-8.113H22.65v11.641h7.055v-3.528" style="fill:#9ca1ab;fill-opacity:1;fill-rule:nonzero;stroke:none;stroke-width:.352778"/><path d="M35.35 30.654v-8.113h-4.938v11.641h7.408v-3.528" style="fill:#fff;fill-opacity:1;fill-rule:nonzero;stroke:none;stroke-width:.352778"/><path d="M37.39 34.739a2.126 2.126 0 0 1-2.116 2.133H4.59a2.126 2.126 0 0 1-2.116-2.133V4.521c0-1.178.948-2.133 2.116-2.133h30.684c1.168 0 2.116.955 2.116 2.133zM37.042 0H2.822C1.458 0 0 1.469 0 2.844v40.527c0 1.374 1.458 2.843 2.822 2.843h34.22c1.364 0 2.822-1.47 2.822-2.843V2.844C39.864 1.47 38.406 0 37.042 0" style="fill:#211e1e;fill-opacity:1;fill-rule:nonzero;stroke:none;stroke-width:.352778"/><path d="M9.524 42.625H8.61v-1.819H7.607v-.544H8.61V39.11h.913zm-3.662.71h3.704v.542H5.757c-.29 0-.5-.043-.628-.127-.118-.081-.18-.218-.18-.404v-1.022h.913zm2.022-4.126v.542h-1.19c0 .473.16.883.481 1.232.255.273.6.499 1.037.675l-.415.43a5.529 5.529 0 0 1-.886-.44c-.296-.183-.521-.367-.673-.55-.143.18-.363.363-.658.55a5.785 5.785 0 0 1-.877.44l-.37-.43c.428-.17.763-.395 1.006-.675.296-.34.443-.753.443-1.232H4.655v-.542M16.169 43.926h-.913V39.11h.913zm-3.045-2.43v-.523h.746V39.11h.912v4.816h-.912v-2.43zm-1.33-1.94v-.472h.91v.471h.864v.536h-.864v.775c0 .579.108 1.08.321 1.509.178.357.42.643.728.855l-.561.346a2.292 2.292 0 0 1-.573-.56 2.218 2.218 0 0 1-.377-.887 2.365 2.365 0 0 1-.4.89 2.366 2.366 0 0 1-.622.557l-.5-.346c.32-.21.572-.493.752-.851.214-.416.321-.92.321-1.513v-.775h-.851v-.536M22.63 43.926h-.912V39.11h.912zm-3.902-3.82c-.119.304-.178.696-.178 1.177 0 .521.059.94.178 1.256.132.34.32.51.567.51.243 0 .429-.17.561-.51.123-.316.185-.735.185-1.256 0-.48-.062-.873-.185-1.177-.136-.33-.322-.496-.56-.496-.243 0-.432.166-.568.496m1.819-.36c.28.403.418.919.418 1.541 0 .66-.139 1.2-.418 1.613-.297.45-.712.676-1.246.676-.538 0-.957-.226-1.257-.676-.276-.414-.413-.953-.413-1.613 0-.622.137-1.138.413-1.542a1.445 1.445 0 0 1 1.257-.661c.53 0 .945.22 1.246.661M27.506 41.343v-.31a9.076 9.076 0 0 1-.352.034 6.393 6.393 0 0 1-1.14-.035v.31zm-1.795 1.502c-.228.073-.344.164-.344.27 0 .107.116.197.344.271.26.083.61.124 1.055.124.431 0 .774-.041 1.029-.124.234-.074.351-.164.351-.271 0-.106-.117-.197-.351-.27-.255-.08-.598-.12-1.03-.12-.443 0-.794.04-1.054.12m-.03-3.075c-.238.081-.357.183-.357.312 0 .122.119.224.357.304.26.088.616.13 1.072.13.456 0 .816-.042 1.08-.13.238-.08.356-.182.356-.304 0-.129-.118-.23-.357-.312-.263-.083-.623-.125-1.079-.125-.456 0-.813.042-1.072.125m2.804 2.694c.386.177.58.396.58.656 0 .254-.194.469-.58.646-.427.198-1.001.295-1.725.295-.727 0-1.305-.097-1.732-.295-.382-.177-.573-.392-.573-.646 0-.26.191-.48.573-.656.427-.197 1.005-.296 1.732-.296.724 0 1.298.1 1.725.296m-3.926-1.977a.589.589 0 0 1-.177-.405c0-.279.197-.51.59-.698.436-.2 1.034-.3 1.794-.3.756 0 1.354.1 1.794.3.398.188.598.42.598.698a.58.58 0 0 1-.185.405c-.132.13-.317.244-.555.34v.516h1.017v.545h-5.337v-.545h1.004v-.516a1.546 1.546 0 0 1-.543-.34M35.648 39.11v1.953h.623v.551h-.623v2.312h-.912V39.11Zm-2.045.1v1.492c0 .714-.231 1.313-.69 1.797-.427.445-1.062.802-1.904 1.077l-.364-.41c.616-.214 1.094-.487 1.436-.818.41-.396.616-.875.616-1.435v-1.158h-1.905v-.546" style="fill:#fff;fill-opacity:1;fill-rule:nonzero;stroke:none;stroke-width:.352778"/></svg>