<svg xmlns="http://www.w3.org/2000/svg" width="150.667" height="174.667" viewBox="0 0 39.863978 46.21398"><path d="M1.196 39.823h36.551v-38.5H1.197Zm0 0" style="fill:#4268ae;fill-opacity:1;fill-rule:nonzero;stroke:none;stroke-width:.352778"/><path d="M17.47 4.549c-3.865 5.292-8.93 5.622-9.636 5.636v4.5s.441.008 3.6.017c2.072.006 2.045 2.065 2.045 2.065V37.71H37.82V4.549" style="fill:#9ca1ab;fill-opacity:1;fill-rule:nonzero;stroke:none;stroke-width:.352778"/><path d="M37.82 8.786c-2.116-1.675-3.875-2.085-7.066-2.085-3.955 0-7.225 1.483-8.373 3.666-1.254 2.383-1.494 3.779-1.494 7.654v.992h8.467v-2.956c0-1.27.244-3.615 2.002-3.615 1.824 0 1.924 1.611 1.65 3.695-.169 1.268-1.376 3.672-2.137 4.915-.916 1.495-6.807 11-9.63 15.12v1.538h16.413l-.49-2.337-5.631-.153c1.725-2.71 5.584-8.727 6.29-10.413" style="fill:#fff;fill-opacity:1;fill-rule:nonzero;stroke:none;stroke-width:.352778"/><path d="M37.39 34.739a2.126 2.126 0 0 1-2.116 2.133H4.59a2.126 2.126 0 0 1-2.116-2.133V4.521c0-1.178.948-2.133 2.116-2.133h30.684c1.168 0 2.116.955 2.116 2.133zM37.042 0H2.822C1.458 0 0 1.469 0 2.844v40.527c0 1.374 1.458 2.843 2.822 2.843h34.22c1.364 0 2.822-1.47 2.822-2.843V2.844C39.864 1.47 38.406 0 37.042 0" style="fill:#211e1e;fill-opacity:1;fill-rule:nonzero;stroke:none;stroke-width:.352778"/><path d="M5.865 39.3v4.356h-.87v-2.709a1.48 1.48 0 0 0-.022-.3.247.247 0 0 0-.088-.15.54.54 0 0 0-.233-.09 2.897 2.897 0 0 0-.452-.026h-.13v-.39c.31-.05.57-.131.783-.246.214-.113.406-.261.574-.445M9.878 43.095v.561H6.932v-.627c.238-.31.505-.616.802-.918.294-.301.537-.536.727-.7.189-.166.352-.34.49-.525.137-.183.206-.352.206-.51 0-.223-.054-.383-.164-.475-.109-.094-.295-.14-.557-.14-.234 0-.403.05-.508.153-.105.101-.157.252-.157.451v.417h-.84v-.17c0-.45.112-.796.334-1.036.222-.241.595-.361 1.122-.361.514 0 .91.105 1.192.313.282.21.423.483.423.824 0 .223-.058.434-.174.63a2.187 2.187 0 0 1-.412.515c-.161.147-.402.373-.727.68-.324.305-.625.611-.9.918M16.197 43.926h-.9V39.11h.9zm-1.35-4.816v4.816h-.9v-2.453h-.653v-.566h.653V39.11Zm-2.176.04v1.612c0 .564.113 1.084.34 1.563.2.422.443.722.727.896l-.568.355a2.447 2.447 0 0 1-.573-.596 2.801 2.801 0 0 1-.394-.846c-.079.3-.21.582-.395.846a2.41 2.41 0 0 1-.59.596l-.526-.355c.263-.188.496-.485.697-.896.247-.492.37-1.011.37-1.563V39.15M22.656 43.926h-.912V39.11h.912zm-3.9-3.82c-.12.304-.18.696-.18 1.177 0 .521.06.94.18 1.256.131.34.32.51.567.51.242 0 .428-.17.56-.51.123-.316.185-.735.185-1.256 0-.48-.062-.873-.184-1.177-.137-.33-.323-.496-.561-.496-.243 0-.431.166-.567.496m1.818-.36c.278.403.419.919.419 1.541 0 .66-.14 1.2-.419 1.613-.296.45-.711.676-1.244.676-.54 0-.96-.226-1.258-.676-.276-.414-.414-.953-.414-1.613 0-.622.138-1.138.414-1.542a1.447 1.447 0 0 1 1.258-.661c.529 0 .944.22 1.244.661M27.535 41.343v-.31a9.077 9.077 0 0 1-.352.034 6.461 6.461 0 0 1-1.14-.035v.31zm-1.795 1.502c-.23.073-.346.164-.346.27 0 .107.116.197.346.271.26.083.61.124 1.055.124.43 0 .774-.041 1.029-.124.233-.074.35-.164.35-.271 0-.106-.117-.197-.35-.27-.255-.08-.598-.12-1.03-.12-.443 0-.795.04-1.054.12m-.031-3.075c-.239.081-.357.183-.357.312 0 .122.118.224.357.304.259.088.617.13 1.073.13.456 0 .816-.042 1.078-.13.238-.08.358-.182.358-.304 0-.129-.12-.23-.358-.312-.262-.083-.622-.125-1.078-.125-.456 0-.814.042-1.073.125m2.804 2.694c.387.177.58.396.58.656 0 .254-.193.469-.58.646-.427.198-1.002.295-1.725.295-.727 0-1.305-.097-1.733-.295-.381-.177-.571-.392-.571-.646 0-.26.19-.48.571-.656.428-.197 1.006-.296 1.733-.296.723 0 1.298.1 1.725.296m-3.926-1.977a.589.589 0 0 1-.178-.405c0-.279.197-.51.591-.698.436-.2 1.034-.3 1.795-.3.755 0 1.353.1 1.792.3.4.188.598.42.598.698a.58.58 0 0 1-.184.405 1.68 1.68 0 0 1-.556.34v.516h1.017v.545h-5.337v-.545h1.005v-.516a1.546 1.546 0 0 1-.543-.34M35.677 39.11v1.953h.622v.551h-.622v2.312h-.912V39.11Zm-2.046.1v1.492c0 .714-.23 1.313-.69 1.798-.428.444-1.063.802-1.905 1.076l-.364-.41c.616-.214 1.095-.487 1.436-.818.41-.396.616-.875.616-1.435v-1.158H30.82v-.546" style="fill:#fff;fill-opacity:1;fill-rule:nonzero;stroke:none;stroke-width:.352778"/></svg>