<svg xmlns="http://www.w3.org/2000/svg" width="150.667" height="174.667" viewBox="0 0 39.863978 46.21398"><path d="M1.196 39.821h36.551V1.323H1.197Zm0 0" style="fill:#a11438;fill-opacity:1;fill-rule:nonzero;stroke:none;stroke-width:.352778"/><path d="M17.83 4.902c-3.866 4.939-8.938 5.27-9.643 5.283v4.5s.442.008 3.6.017c2.073.006 2.044 2.065 2.044 2.065v20.59h24.342V4.902" style="fill:#9ca1ab;fill-opacity:1;fill-rule:nonzero;stroke:none;stroke-width:.352778"/><path d="M32.881 17.826c0 1.097-.605 1.985-1.41 1.985-.807 0-1.412-.888-1.412-1.985v-3.97c0-1.095.605-1.984 1.411-1.984s1.411.889 1.411 1.984zm0 15.997c0 1.096-.605 1.985-1.41 1.985-.807 0-1.412-.889-1.412-1.985v-6.458c0-1.097.605-1.984 1.411-1.984s1.411.887 1.411 1.984zM31.433 6.745c-5.773 0-10.042 2.14-10.042 8.353 0 4.206 1.048 5.38 2.609 6.49-1.348 1.028-3.232 2.95-3.232 8.821 0 6.211 1.08 6.595 3.331 7.654h9.525c1.442 0 3.843.408 4.549.107V8.264c-1.411-.912-3.38-1.519-6.74-1.519" style="fill:#fff;fill-opacity:1;fill-rule:nonzero;stroke:none;stroke-width:.352778"/><path d="M37.39 34.739a2.125 2.125 0 0 1-2.116 2.132H4.59a2.125 2.125 0 0 1-2.116-2.132V4.521c0-1.178.948-2.133 2.116-2.133h30.684c1.168 0 2.116.955 2.116 2.133zM37.042 0H2.822C1.458 0 0 1.47 0 2.844v40.527c0 1.374 1.458 2.843 2.822 2.843h34.22c1.364 0 2.822-1.47 2.822-2.843V2.844C39.864 1.47 38.406 0 37.042 0" style="fill:#211e1e;fill-opacity:1;fill-rule:nonzero;stroke:none;stroke-width:.352778"/><path d="M7.016 41.811h-.743v-1.013h-.849v-.563h.849v-1.369h.743zm-2.776.897c-.194.097-.29.217-.29.358s.096.258.29.355c.217.111.514.168.893.168.385 0 .688-.057.908-.168.197-.097.298-.214.298-.355s-.1-.261-.298-.358c-.22-.107-.523-.161-.908-.161-.379 0-.676.054-.893.161m2.364-.397c.322.207.482.462.482.762-.003.297-.165.547-.487.751-.358.23-.847.344-1.466.344-.616 0-1.102-.115-1.46-.344-.319-.204-.477-.454-.477-.75 0-.301.158-.556.476-.763.362-.228.85-.343 1.461-.343.623 0 1.112.115 1.47.343M3.95 39.253v-.413h.743v.413h1.003v.563H4.692c0 .333.112.64.335.917.208.26.495.476.86.645l-.332.433a2.945 2.945 0 0 1-.753-.444c-.234-.194-.4-.384-.497-.574-.103.19-.274.38-.513.574-.24.196-.496.346-.767.45l-.276-.429a2.52 2.52 0 0 0 .838-.65c.241-.288.362-.596.362-.922H2.945v-.563M9.68 43.088v-1.431h.74v1.431h1.811v.564H7.884v-.564zm1.286-2.5c.298.344.735.615 1.31.815l-.33.458c-.468-.168-.854-.359-1.155-.57a2.668 2.668 0 0 1-.748-.782c-.17.3-.413.56-.727.783-.302.21-.69.4-1.166.569l-.297-.458c.55-.2.973-.474 1.272-.82.371-.432.556-.99.556-1.674h.738c0 .694.184 1.254.547 1.68M14.053 43.394h3.018v.58H13.97c-.238 0-.41-.045-.512-.134-.098-.09-.147-.235-.147-.435v-1.094h.743zm2.24-2.592h-1.366v-.584h1.367v-.402h-1.34v-.58h1.34v-.37h.743v3.735h-.743v-.783h-2.702c-.18 0-.315-.057-.401-.167-.08-.1-.122-.244-.122-.43V38.91h.744v2.334h2.48M22.046 44.028h-.743v-5.16h.743zm-3.178-4.094c-.098.325-.146.746-.146 1.261 0 .558.048 1.006.146 1.346.108.364.26.547.462.547.197 0 .35-.183.457-.547.1-.34.15-.788.15-1.346 0-.515-.05-.936-.15-1.26-.111-.355-.263-.531-.457-.531-.199 0-.352.176-.462.53m1.481-.386c.228.433.34.984.34 1.651 0 .709-.112 1.286-.34 1.728-.24.484-.58.725-1.014.725-.44 0-.781-.241-1.025-.725-.223-.442-.335-1.02-.335-1.728 0-.667.112-1.218.335-1.65.248-.473.59-.709 1.025-.709.432 0 .77.236 1.014.708M25.69 41.26v-.332a8.068 8.068 0 0 1-.286.036 3.762 3.762 0 0 1-.315.01c-.122 0-.228-.002-.322-.01a7.71 7.71 0 0 1-.292-.036v.332zm-1.46 1.61c-.189.077-.282.173-.282.287 0 .115.093.213.282.291.21.088.496.134.859.134.351 0 .63-.046.837-.134.19-.078.286-.176.286-.29 0-.115-.095-.211-.286-.289-.208-.086-.486-.13-.837-.13-.363 0-.648.044-.859.13m-.026-3.294c-.193.086-.29.197-.29.333 0 .13.097.241.29.327.212.093.503.139.874.139.372 0 .665-.046.879-.14.194-.085.29-.195.29-.326 0-.136-.096-.247-.29-.333-.214-.09-.507-.134-.88-.134-.37 0-.66.044-.873.134m2.285 2.885c.314.19.472.425.472.703 0 .273-.158.503-.472.693-.349.21-.818.316-1.406.316-.593 0-1.062-.105-1.411-.316-.31-.19-.467-.42-.467-.693 0-.278.157-.513.467-.703.349-.21.818-.315 1.411-.315.588 0 1.057.104 1.406.315m-3.199-2.118a.739.739 0 0 1-.144-.434c0-.298.16-.546.48-.747.356-.214.842-.321 1.463-.321.616 0 1.102.107 1.46.321.324.201.487.45.487.747 0 .153-.05.298-.15.434-.108.14-.258.262-.452.365v.553h.828v.584h-4.348v-.584h.819v-.553a1.268 1.268 0 0 1-.443-.365M28.913 40.079h2.371v-.349h-2.371zm0-1.17v.248h2.37v-.248h.743v1.75h-3.178c-.239 0-.412-.05-.522-.146-.104-.095-.156-.244-.156-.445v-1.16zm3.36 2.512h-1.8v.365h1.553v1.367h-3.113v.236h3.153v.586h-3.218c-.222 0-.39-.053-.507-.158-.115-.099-.171-.242-.171-.428v-.816h3.113v-.208H28.17v-.579h1.561v-.365h-1.806v-.576h4.347M37.006 38.866v2.093h.507v.59h-.507v2.48h-.744v-5.163zm-1.666.11v1.596c0 .766-.189 1.409-.564 1.927-.348.475-.865.86-1.552 1.153l-.294-.44c.501-.23.891-.52 1.17-.875.333-.425.501-.938.501-1.539v-1.24H33.05v-.583" style="fill:#fff;fill-opacity:1;fill-rule:nonzero;stroke:none;stroke-width:.352778"/></svg>