<svg xmlns="http://www.w3.org/2000/svg" width="341.26642" height="402.25967"><path d="M325.135 301.704c0 12.839-10.404 23.25-23.238 23.25H38.471c-12.833 0-23.237-10.411-23.237-23.25V38.278c0-12.828 10.404-23.238 23.237-23.238h263.426c12.834 0 23.238 10.41 23.238 23.238v263.426z" style="fill:#fff;fill-opacity:1"/><path d="M307.595 318.88H33.847c-6.824 0-12.358-5.528-12.358-12.359l-.035-272.78c0-6.824 5.533-12.363 12.358-12.363h273.742c6.83 0 12.364 5.54 12.364 12.364l.035 272.78c0 6.83-5.533 12.358-12.358 12.358M311.098 0H30.168C13.508 0 0 13.503 0 30.162v341.93c0 16.66 13.508 30.168 30.168 30.168h280.93c16.66 0 29.899-13.509 30.168-30.168V30.162C340.996 13.502 327.758 0 311.098 0z" style="fill:#000"/><g style="font-style:normal;font-variant:normal;font-weight:700;font-stretch:normal;font-size:413.333px;font-family:Ebrima;letter-spacing:0;fill:#000;fill-opacity:1;stroke:none;stroke-width:1"><path d="m269.108 320.63-63.944-.669c-5.146-37.514-23.233-103.826-64.547-107.108H123.06v107.778H63.035V56.162h98.168c48.01 0 96.342 14.589 96.342 67.063 0 10.09-1.547 19.442-4.642 28.053-3.095 8.477-7.468 16.146-13.119 23.008-5.65 6.862-12.531 12.752-20.585 17.76-7.958 4.948-7.764 4.772-17.631 11.706 49.12 33.215 57.474 68.584 67.54 116.879zM123.058 93.356v80.527h28.256c13.993 0 25.228-4.036 33.704-12.11 8.611-8.207 12.917-18.365 12.917-30.474 0-25.296-15.137-37.943-45.41-37.943z" style="font-style:normal;font-variant:normal;font-weight:700;font-stretch:normal;font-size:413.333px;font-family:Ebrima;stroke-width:1" transform="matrix(1.03666 0 0 1.03666 -2.121 -11.754)"/></g><g style="font-style:normal;font-weight:400;font-size:48px;font-family:sans-serif;fill:#000;fill-opacity:1;stroke:none"><path d="M68.157 339.1h-36v10.922q0 2.437 1.36 3.797 1.5 1.453 4.406 1.453h30.656v-5.016H39.094v-6.14h29.063zm-38.344 19.875v5.063h40.735v-5.063zm20.39 13.125q5.157 0 8.157 1.125 2.672.984 2.672 2.484 0 1.454-2.672 2.485-2.953 1.125-8.156 1.125-5.297 0-8.297-1.125-2.625-1.031-2.625-2.485 0-1.5 2.625-2.484 3.047-1.125 8.297-1.125zm0-5.156q-8.577 0-13.546 2.719-4.406 2.437-4.406 6.046 0 3.61 4.406 6.047 4.969 2.766 13.547 2.766 8.484 0 13.406-2.766 4.406-2.437 4.406-6.047 0-3.609-4.406-6.046-4.922-2.72-13.406-2.72zM118.22 356.256h-3.235q.563-2.484.89-6.093.282-3.094.282-6.235V339.1h-36v5.11h29.062v2.578q0 2.765-.234 4.968-.234 2.532-.75 4.5h-30.14v5.063h40.124zm-9 17.25v4.313H87.093v-4.313zm-29.063-8.672v13.079q0 2.343 1.219 3.609 1.218 1.266 3.422 1.266h31.359v-17.954h-6.938v3.75H87.094v-3.75zM128.157 338.538v13.218q0 2.625 1.453 3.89 1.547 1.267 4.875 1.267h29.672v-18.375h-6.938v3.187h-22.125v-3.187zm29.062 8.203v5.11h-22.125v-5.11zm9.235 13.5H125.86v5.203H144v7.36h6.891v-7.36h15.563zm-31.36 8.86h-6.937v8.718q0 2.625 1.36 3.797 1.452 1.172 4.78 1.172h29.86v-5.063h-29.063zM176.157 338.96v5.015h29.062v3.844h-29.062v9.234q0 2.531 1.547 3.797 1.547 1.313 4.781 1.313h30.14v-5.016h-29.53v-4.313h29.062V338.96zm-2.297 27.234v5.11h7.875v11.952h6.984v-11.953h11.204v11.953h6.937v-11.953h7.594v-5.11zM243.938 358.178h9.656v25.078h6.938v-45.093h-6.938v14.906h-9.28V339.1h-21.376v5.11h14.485v10.828q0 7.875-4.688 13.453-3.89 4.64-10.922 7.64l2.766 3.844q8.344-3.328 13.078-8.437 5.062-5.485 6.281-13.36zM272.157 338.538v15.421q0 2.625 1.453 3.891 1.547 1.266 4.875 1.266h29.672v-20.578h-6.938v4.5h-22.125v-4.5zm29.062 9.515v6h-22.125v-6zm9.282 15.89h-40.64v5.11h16.78v14.203h6.89v-14.203h16.97z" style="font-style:normal;font-variant:normal;font-weight:700;font-stretch:normal;font-size:48px;font-family:HYHeadLine-Medium;fill:#fff"/></g></svg>