<svg xmlns="http://www.w3.org/2000/svg" xml:space="preserve" x="0px" y="0px" viewBox="0 0 98.999 116.001"><path fill="#FFF" d="M1.47 3.719h94.846v94.299H1.47z"/><path fill="#231F20" d="M92 0H7a7 7 0 0 0-7 7v102a7 7 0 0 0 7 7h85a7 7 0 0 0 7-7V7a7 7 0 0 0-7-7zm1 86.717a6 6 0 0 1-6 6H12a6 6 0 0 1-6-6v-75a6 6 0 0 1 6-6h75a6 6 0 0 1 6 6v75z"/><path fill="#FFF" d="M30.867 97.488a4.262 4.262 0 0 1 0 5.317 3.754 3.754 0 0 1-2.938 1.157 3.718 3.718 0 0 1-2.935-1.157 4.254 4.254 0 0 1 0-5.317 3.744 3.744 0 0 1 2.935-1.143 3.782 3.782 0 0 1 2.938 1.143zm4.327 7.69v5.322h-2.06v-3.74h-8.308v-1.582h10.368zm-8.655-6.621a2.772 2.772 0 0 0-.405 1.6 2.738 2.738 0 0 0 .405 1.582 1.758 1.758 0 0 0 2.769 0c.3-.471.445-1.024.416-1.582a2.719 2.719 0 0 0-.416-1.6 1.783 1.783 0 0 0-2.769 0zm8.655-2.138v1.362h1.4v1.553h-1.4v1.933h1.4v1.568h-1.4v1.582h-2.06v-8l2.06.002zM73.936 103.391h-4.981v1h4.3v3.736h-8.629v.644h8.74v1.6h-8.92a2.079 2.079 0 0 1-1.406-.425 1.463 1.463 0 0 1-.473-1.172v-2.226h8.628v-.572h-8.628v-1.582H66.9v-1h-5.01v-1.567h12.046v1.564zm-.682-6.679v4.233h-8.989a1.752 1.752 0 0 1-1.281-.425 1.642 1.642 0 0 1-.417-1.2v-2.608h10.687zm-8.628 1.582v1.069h6.569v-1.069h-6.569z"/><path fill="#211821" d="m79.843 71.178-7.353-7.14 3.571-3.676-4.305-4.18 3.31-3.408-3.857-3.745 1.656-1.7-27.708-26.913 2.525-2.6-2.958-2.874-6.445 6.636-6.053-5.878 3.57-3.676-2.959-2.876-19.159 19.727 2.959 2.874 3.484-3.587 6.052 5.879-6.182 6.367 2.958 2.873 2.265-2.331 27.707 26.91 2.09-2.152-6.724-6.532 7.664-7.89L53.8 49.2l-7.664 7.892-3.407-3.31 7.664-7.891-2.154-2.091-7.664 7.891-3.318-3.222 7.663-7.891-2.152-2.09-7.668 7.887-7.8-7.575 15.766-16.233 27.709 26.911-15.5 15.961 3.856 3.745 3.658-3.766 4.3 4.18L70.4 66.19l7.352 7.141 2.091-2.153zM28.264 31.889l-6.053-5.879 7.924-8.16 6.053 5.879-7.924 8.16zM81.591 83.091h.018s-3-7.687-3.314-8.062-2.954 7.414-2.954 7.414h.02a5.328 5.328 0 0 0-.878 2.959c0 2.59 1.707 4.687 3.812 4.687s3.813-2.1 3.813-4.687a5.46 5.46 0 0 0-.517-2.311z"/></svg>