<svg xmlns="http://www.w3.org/2000/svg" xml:space="preserve" x="0px" y="0px" viewBox="0 0 98.999 116.001"><path fill="#FFF" d="M1.47 3.719h94.846v94.299H1.47z"/><path fill="#231F20" d="M92 0H7a7 7 0 0 0-7 7v102a7 7 0 0 0 7 7h85a7 7 0 0 0 7-7V7a7 7 0 0 0-7-7zm1 86.717a6 6 0 0 1-6 6H12a6 6 0 0 1-6-6v-75a6 6 0 0 1 6-6h75a6 6 0 0 1 6 6v75z"/><path fill="#FFF" d="M35.959 103.831H23.908v-1.582h3.965v-2.417h2.061v2.417h2.949c.121-.486.205-.981.251-1.48.058-.55.086-1.102.083-1.655v-.806H24.59v-1.6h10.687v1.512c0 .674-.033 1.358-.1 2.051a14.489 14.489 0 0 1-.28 1.978h1.059l.003 1.582zm-1.949 1.816a2.328 2.328 0 0 1 0 4.263 7.463 7.463 0 0 1-4.076.981 7.435 7.435 0 0 1-4.079-.981 2.348 2.348 0 0 1 0-4.263 7.559 7.559 0 0 1 4.079-.967 7.548 7.548 0 0 1 4.076.967zm-6.6 1.1c-.566.283-.849.63-.849 1.04s.283.757.849 1.04a5.665 5.665 0 0 0 2.52.469 5.822 5.822 0 0 0 2.532-.469c.585-.293.877-.639.876-1.04-.001-.401-.293-.747-.876-1.04a5.807 5.807 0 0 0-2.532-.469 5.664 5.664 0 0 0-2.516.468l-.004.001zM66.964 107.947V104.3h2.059v3.647h4.912v1.553h-12.05v-1.553h5.079zm6.5-11.235v1.567h-1.573v4.453h1.572v1.553H62.4v-1.553h1.573v-4.453H62.4v-1.567h11.064zm-7.432 1.567v4.453h3.8v-4.453h-3.8z"/><path fill="#212121" d="m70.858 47.014-22.667 1.209 10.667-33h-14l-12 42.434 20.125-1.393-8.75 28.25z"/><path fill="#212121" d="M29.94 41.764h-7.717L15.82 65.595l10.881.023-4.823 15.57 14.676-20.669-11.321.138zM73.858 38.406l4.707-18.892h-7.717l-6.403 23.831 10.881.022-4.823 15.571 14.676-20.669z"/></svg>