<svg xmlns="http://www.w3.org/2000/svg" xml:space="preserve" x="0px" y="0px" viewBox="0 0 99 116.001"><path fill="#FFF" d="M1.47 3.719h94.845v94.299H1.47z"/><path fill="#231F20" d="M92 0H7a7 7 0 0 0-7 7v102a7 7 0 0 0 7 7h85a7 7 0 0 0 7-7V7a7 7 0 0 0-7-7zm1 86.717a6 6 0 0 1-6 6H12a6 6 0 0 1-6-6v-75a6 6 0 0 1 6-6h75a6 6 0 0 1 6 6v75z"/><path fill="#FFF" d="M24.7 96.536v5.127a7.844 7.844 0 0 0 1.336 4.072c.594.97 1.32 1.852 2.157 2.622l-1.28 1.128A8.548 8.548 0 0 1 25 107.463a8.072 8.072 0 0 1-1.294-3.017 8.31 8.31 0 0 1-1.392 3.032 9.525 9.525 0 0 1-1.906 2.007l-1.1-1.113a9.78 9.78 0 0 0 2.017-2.564 8.27 8.27 0 0 0 1.309-4.145v-5.127H24.7zm6.5-.117v5.713h1.4v1.611h-1.406v6.767h-2.06V96.419H31.2zM45.319 97.283v-.938h2.059v.938h2.1v1.582h-1.404a2.428 2.428 0 0 1 1.239 1.362c.227.659.279 1.366.152 2.051a2.735 2.735 0 0 1-.918 1.611 3.057 3.057 0 0 1-2.059.689 2.99 2.99 0 0 1-2.032-.689 2.766 2.766 0 0 1-.905-1.611 3.78 3.78 0 0 1 .139-2.051 2.357 2.357 0 0 1 1.253-1.362h-1.461v-1.582h1.837zm8.878 8.569a2.448 2.448 0 0 1 1.35 2.08 2.368 2.368 0 0 1-1.35 2.022 7.686 7.686 0 0 1-4.091.937 7.85 7.85 0 0 1-4.147-.937 2.368 2.368 0 0 1-1.35-2.022 2.448 2.448 0 0 1 1.35-2.08 7.955 7.955 0 0 1 4.147-.923 7.78 7.78 0 0 1 4.094.923h-.003zm-8.433-5.61a2.355 2.355 0 0 0-.209 1.069c-.013.392.059.781.209 1.143a.8.8 0 0 0 .724.527.821.821 0 0 0 .751-.527 2.45 2.45 0 0 0 .237-1.143 2.121 2.121 0 0 0-.237-1.069.824.824 0 0 0-.751-.469.785.785 0 0 0-.724.469zm1.767 6.694c-.556.254-.834.576-.835.967 0 .371.278.688.835.952a6.163 6.163 0 0 0 2.575.44 6.128 6.128 0 0 0 2.546-.44c.557-.267.836-.584.835-.952 0-.391-.278-.714-.835-.967a6.256 6.256 0 0 0-2.546-.425 6.36 6.36 0 0 0-2.575.425zm2.6-10.517h2.06v3.427h1.086v-3.427h2.059v8h-2.057V101.4h-1.086v3.018h-2.06l-.002-7.999zM73.5 100.813a5.838 5.838 0 0 0 2.407 2.022l-.988 1.186a10.27 10.27 0 0 1-2.185-1.479 5.515 5.515 0 0 1-1.377-1.7 6.3 6.3 0 0 1-1.434 1.685c-.65.57-1.365 1.062-2.129 1.465l-.849-1.157a6.502 6.502 0 0 0 2.254-2.022 7.576 7.576 0 0 0 1.128-4.277H72.4a7.597 7.597 0 0 0 1.1 4.277zm4.23 5.01a2.26 2.26 0 0 1-.014 4.131 7.579 7.579 0 0 1-4.064.937 7.545 7.545 0 0 1-4.049-.937 2.411 2.411 0 0 1-1.323-2.054c.035-.88.54-1.674 1.322-2.08a7.593 7.593 0 0 1 4.049-.938 7.621 7.621 0 0 1 4.078.941h.001zm-6.554 1.084c-.539.267-.808.594-.808.981s.269.71.808.967c.78.338 1.627.493 2.476.454a5.758 5.758 0 0 0 2.519-.454c.548-.267.822-.589.821-.967-.001-.378-.274-.705-.821-.981a5.936 5.936 0 0 0-2.519-.44 5.738 5.738 0 0 0-2.476.44zm3.841-6.68V98.6h1.8v-2.181h2.053v8.071h-2.059v-4.263h-1.794z"/><path fill="#211821" d="M35.957 25.21c2.035 1.058 3.043 2.347 5.469 2.476.93.049 2.055-.562 2.972-.194 1.073.43 1.342 1.274 2.778 1.224 2.314-.08 3.883-1.625 6.25-1.628 2.228 0 4.633 1.214 6.781.407a8.258 8.258 0 0 0 4.193-3.934c1.584-3.672-3.8-6.954-6.844-7.1-2.137-.1-4.25-.049-6.375-.25s-3.827-.963-6-.875c-2.208.091-2.95 2.116-5.25 1.875-1.034-.107-1.756-.588-2.869-.218a9.867 9.867 0 0 0-2.985 1.972 5.524 5.524 0 0 0-1.148 1.69c-.24 2.272 1.243 3.628 3.028 4.555zM32.926 20.588l-.125.375c.031-.1.08-.2.123-.306.002-.024-.001-.045.002-.069z"/><path fill="#211821" d="M73.545 29.2c4.435-1.074 10.426.719 10.486.738l.291-.957c-.255-.078-6.31-1.893-11.013-.752-4.087.989-6.9 4.6-7.7 5.742a4.416 4.416 0 0 1 .19-3.387l3.125-6.75-.25-1.75s-.625.25-1.875 2-5.084 5.164-6.584 5.414-3-.393-4.375-.784c-5.38-1.532-6.83 1.808-9.063 1.808-1.938 0-2.754-.527-4.606-1.206-1.644-.6-3.206-1.482-4.581-1.232s-2.313 1.438-3.313.938-.625-2.563-2.375-3.563-3.4-2.212-3.4-2.212l-2.328-.413.875 2.375s3.375 5 3.625 6.5.416 3.834-.959 5.459-13.041 11-13.041 20.834c0 13.807 14.355 25 32.062 25S80.8 71.813 80.8 58.006c0-9.834-6.383-13.781-10.334-18-2.125-2.27-4.012-4.657-4.247-5 1.425-.3 7.592-1.5 10.537-.45a18.61 18.61 0 0 1 5.823 3.517l.69-.725a19.322 19.322 0 0 0-6.169-3.73c-2.744-.981-7.759-.225-10.12.22 1.131-1.416 3.491-3.889 6.565-4.638zm-14.023 4.41c1.06-.125 2.078-.258 3.019-.388a1.265 1.265 0 0 1 1.44 1.046 1.24 1.24 0 0 1-1.059 1.397l-.02.003c-.959.132-2 .268-3.074.395a1.26 1.26 0 0 1-1.416-1.075 1.244 1.244 0 0 1 1.098-1.373l.012-.001v-.004zm-7.659.58a68.17 68.17 0 0 0 3.014-.2c.688-.064 1.3.436 1.375 1.123a1.244 1.244 0 0 1-1.15 1.333l-.008.001c-1.113.092-2.162.16-3.118.2h-.057a1.233 1.233 0 0 1-.056-2.464v.007zm-9.651-.169c1.069.087 2.081.148 3.009.183a1.234 1.234 0 0 1 .002 2.466l-.05-.001h-.049c-.965-.036-2.016-.1-3.124-.19a1.246 1.246 0 0 1-1.162-1.323l.001-.008a1.258 1.258 0 0 1 1.374-1.123l-.001-.004zm-7.656-.776c.939.134 1.956.269 3.013.395a1.24 1.24 0 0 1 1.111 1.357l-.002.016a1.257 1.257 0 0 1-1.416 1.078c-1.08-.129-2.117-.266-3.075-.4a1.238 1.238 0 0 1-1.077-1.381l.003-.019a1.267 1.267 0 0 1 1.443-1.042v-.004zM66.336 53.5v4.532H62.8l-3.772 15.357h-6.1l-2.56-12.212a90.1 90.1 0 0 1-.621-3.147h-2.056c-.2 1.049-.466 2.1-.7 3.147l-2.917 12.21h-6.058l-3.491-15.36h-3.379v-4.536h2.331l-2.017-8.916h6.1l1.628 8.916h5.087l1.984-8.916h5.671l1.783 8.925h4.816l1.789-8.915h5.788L63.889 53.5h2.447z"/><path fill="#211821" d="m48.781 51.997-.234 1.498h.467l-.156-1.498zM41.475 67.091h.117c.389-2.883 1.012-5.88 1.711-9.065H40.04a300.09 300.09 0 0 1 1.435 9.065zM56.078 67.02h.122c.389-3.033.9-5.955 1.44-8.99h-2.996c.582 3.034 1.085 5.957 1.434 8.99z"/></svg>