<svg xmlns="http://www.w3.org/2000/svg" xml:space="preserve" x="0px" y="0px" viewBox="0 0 98.999 116.001"><path fill="#FFF" d="M1.47 3.719h94.846v94.299H1.47z"/><path fill="#231F20" d="M92 0H7a7 7 0 0 0-7 7v102a7 7 0 0 0 7 7h85a7 7 0 0 0 7-7V7a7 7 0 0 0-7-7zm1 86.717a6 6 0 0 1-6 6H12a6 6 0 0 1-6-6v-75a6 6 0 0 1 6-6h75a6 6 0 0 1 6 6v75z"/><path fill="#FFF" d="M12.887 103.974a3.435 3.435 0 0 1-2.3.793 3.303 3.303 0 0 1-2.687-1.176 3.927 3.927 0 0 1-.883-2.611 3.97 3.97 0 0 1 .883-2.639 3.322 3.322 0 0 1 2.689-1.162 3.373 3.373 0 0 1 2.545 1.012 3.855 3.855 0 0 1 1.013 2.352h1.481v-3.3h1.922v9.789h-1.923v-4.95h-1.61a3.562 3.562 0 0 1-1.13 1.892zm-3.053 4.813h7.807v1.476H9.613a2.037 2.037 0 0 1-1.324-.342 1.424 1.424 0 0 1-.377-1.107v-2.789h1.922v2.762zm-.493-9.42a3.46 3.46 0 0 0 0 3.24 1.438 1.438 0 0 0 2.481 0 3.371 3.371 0 0 0 0-3.24 1.438 1.438 0 0 0-2.481 0zM25.091 107.679a2.859 2.859 0 0 1-2.585 1.764 2.911 2.911 0 0 1-2.65-1.846 9.638 9.638 0 0 1-.87-4.4 9.007 9.007 0 0 1 .87-4.211 2.933 2.933 0 0 1 2.65-1.8 2.79 2.79 0 0 1 2.377 1.367 7.232 7.232 0 0 1 1.052 3.336H27.6v-4.641h1.921V110.4H27.6v-6.986h-1.587a9.498 9.498 0 0 1-.922 4.265zM21.3 99.968a11.304 11.304 0 0 0-.377 3.213 12.636 12.636 0 0 0 .377 3.432c.276.933.674 1.398 1.194 1.394.52-.004.914-.469 1.182-1.394.291-1.12.422-2.275.389-3.432a10.962 10.962 0 0 0-.389-3.213c-.286-.902-.68-1.353-1.182-1.353-.502 0-.9.451-1.194 1.353zM39.594 97.248H41.5V110.4h-1.906v-.957h-8.937v-1.5h8.937V97.248zm-2.248 1.162a4.646 4.646 0 0 1 0 5.523 3.684 3.684 0 0 1-5.52 0 4.7 4.7 0 0 1 0-5.523 3.71 3.71 0 0 1 5.52 0zm-4.065 1a4.07 4.07 0 0 0 0 3.527 1.5 1.5 0 0 0 2.637 0 3.957 3.957 0 0 0 0-3.527 1.505 1.505 0 0 0-2.637 0zM57.1 106.257h-4.7v4.143h-1.91v-4.143h-4.647v-1.49H57.1v1.49zm-8.7-8.9v1.313h6.13v-1.313h1.923v6h-8.221a2.042 2.042 0 0 1-1.35-.369 1.466 1.466 0 0 1-.4-1.135v-4.5l1.918.004zm0 2.775v1.75h6.13v-1.75H48.4zM64.892 97.521v1.449H62.5a4.591 4.591 0 0 0 .974 2.871 5.83 5.83 0 0 0 2.1 1.7l-.883 1.134a8.836 8.836 0 0 1-1.779-1.107 5.872 5.872 0 0 1-1.377-1.449 5.677 5.677 0 0 1-1.363 1.449 9.02 9.02 0 0 1-1.807 1.107l-.779-1.134a5.258 5.258 0 0 0 2.092-1.7 4.742 4.742 0 0 0 .909-2.871h-2.319v-1.449h6.624zm3.636 7.9v4.963h-1.922v-3.5H58.67v-1.463h9.858zm0-.7h-1.922v-3.071h-2.065v-1.45h2.065v-2.952h1.922v7.473zM77.044 97.521v1.5h-2.521a3.05 3.05 0 0 0 1.078 2.2 7.67 7.67 0 0 0 2.105 1.381l-.909 1.108a14.55 14.55 0 0 1-1.858-1.026 4.884 4.884 0 0 1-1.377-1.244c-.384.494-.85.92-1.377 1.258-.58.389-1.192.727-1.83 1.012l-.779-1.108a6.585 6.585 0 0 0 2.013-1.381 3.128 3.128 0 0 0 1.012-2.2h-2.363v-1.5h6.806zm3.454 6.768v3.718h-7.715v.739h7.807v1.517h-7.975a1.931 1.931 0 0 1-1.312-.4 1.37 1.37 0 0 1-.442-1.094V106.5h7.715v-.711h-7.715v-1.5h9.637zm0-.438h-1.922v-2.6h-1.831v-1.515h1.831v-2.488H80.5l-.002 6.603zM87.455 101.349a5.449 5.449 0 0 0 2.247 1.887l-.923 1.107a9.592 9.592 0 0 1-2.039-1.381 5.15 5.15 0 0 1-1.285-1.586 5.904 5.904 0 0 1-1.338 1.573c-.607.532-1.273.991-1.987 1.367l-.792-1.08a6.068 6.068 0 0 0 2.1-1.887 7.072 7.072 0 0 0 1.053-3.992h1.935a7.088 7.088 0 0 0 1.029 3.992zm3.948 4.676a2.11 2.11 0 0 1-.012 3.856 8.628 8.628 0 0 1-7.573 0 2.252 2.252 0 0 1-1.234-1.915 2.29 2.29 0 0 1 1.234-1.941 8.654 8.654 0 0 1 7.585 0zm-6.117 1.012c-.5.246-.753.551-.753.916s.25.656.753.9c.728.315 1.519.46 2.312.424a5.399 5.399 0 0 0 2.351-.424c.51-.246.765-.546.766-.9s-.255-.659-.766-.916a5.518 5.518 0 0 0-2.351-.411 5.356 5.356 0 0 0-2.312.411zm3.585-6.235v-1.517h1.676v-2.037h1.922v7.533h-1.922V100.8l-1.676.002z"/><path d="M73.853 17.452H25.145c-6.477 0-11.729 6.373-11.729 13v21.667c0 6.628 5.252 13 11.729 13h3.271a48.638 48.638 0 0 0 2.667 11.5c2 4.833 7.5 7.667 7.5 7.667h1s-2.334-7.334-1.334-11.5 2-7.667 2-7.667h33.6c6.479 0 11.73-6.372 11.73-13V30.452c.004-6.627-5.247-13-11.726-13zm-42.544 19.1v5.817h-5.818V38.01c-.023-.962.064-1.924.258-2.866.19-.755.523-1.467.983-2.095a6.296 6.296 0 0 1 1.71-1.6 5.965 5.965 0 0 1 1.5-.749l1.5 2.31a3.907 3.907 0 0 0-1.156.385 3.624 3.624 0 0 0-1.111.9 2.738 2.738 0 0 0-.642 1.176 4.572 4.572 0 0 0-.172 1.09l2.948-.009zm7.527 0v5.817h-5.817V38.01c-.023-.962.063-1.923.257-2.866a6.023 6.023 0 0 1 .984-2.095 6.28 6.28 0 0 1 1.71-1.6 5.932 5.932 0 0 1 1.5-.749l1.5 2.31a3.907 3.907 0 0 0-1.156.385 3.616 3.616 0 0 0-1.112.9 2.736 2.736 0 0 0-.641 1.176 4.522 4.522 0 0 0-.172 1.09l2.947-.009zM66.448 35.1c.023.97-.07 1.939-.278 2.886a5.939 5.939 0 0 1-.962 2.032 6.733 6.733 0 0 1-1.732 1.647 4.476 4.476 0 0 1-1.476.7l-1.5-2.31a2.363 2.363 0 0 0 1.111-.32 4.083 4.083 0 0 0 1.154-.963c.289-.318.501-.698.622-1.111.119-.374.184-.763.192-1.155h-2.948V30.7h5.817v4.4zm7.528 0c.024.97-.07 1.939-.279 2.886a5.885 5.885 0 0 1-.962 2.032A6.737 6.737 0 0 1 71 41.667a4.481 4.481 0 0 1-1.477.7l-1.5-2.31a2.37 2.37 0 0 0 1.112-.32 4.1 4.1 0 0 0 1.154-.963c.288-.319.5-.699.621-1.111.119-.374.184-.763.192-1.155h-2.944V30.7h5.818v4.4z"/></svg>